<?xml version="1.0" encoding="UTF-8" standalone="no"?>
<!-- Created with Inkscape (http://www.inkscape.org/) -->

<svg
   width="25.160164mm"
   height="16.652405mm"
   viewBox="0 0 25.160164 16.652405"
   version="1.1"
   id="svg5"
   xml:space="preserve"
   xmlns:inkscape="http://www.inkscape.org/namespaces/inkscape"
   xmlns:sodipodi="http://sodipodi.sourceforge.net/DTD/sodipodi-0.dtd"
   xmlns="http://www.w3.org/2000/svg"
   xmlns:svg="http://www.w3.org/2000/svg"><sodipodi:namedview
     id="namedview7"
     pagecolor="#ffffff"
     bordercolor="#666666"
     borderopacity="1.0"
     inkscape:showpageshadow="2"
     inkscape:pageopacity="0.0"
     inkscape:pagecheckerboard="0"
     inkscape:deskcolor="#d1d1d1"
     inkscape:document-units="mm"
     showgrid="false" /><defs
     id="defs2" /><g
     inkscape:label="Layer 1"
     inkscape:groupmode="layer"
     id="layer1"
     transform="translate(-99.412112,-140.63867)"><g
       id="g1415"
       style="fill:#000000"
       inkscape:export-filename="shrugging_man.svg"
       inkscape:export-xdpi="96"
       inkscape:export-ydpi="96"><path
         style="color:#000000;fill:#000000;-inkscape-stroke:none"
         d="m 114.73828,146.37109 -2.10547,0.65625 0.0781,0.25196 1.81054,-0.56446 1.53125,10.37891 0.26172,-0.0391 z"
         id="path380" /><path
         style="color:#000000;fill:#000000;-inkscape-stroke:none"
         d="m 108.90234,146.36914 -1.19531,10.89453 0.26172,0.0274 1.16211,-10.57227 1.80469,0.56055 0.0781,-0.25196 z"
         id="path488" /><path
         style="color:#000000;fill:#000000;-inkscape-stroke:none"
         d="m 108.28516,147.46289 -4.16407,1.48242 0.0879,0.25 4.16602,-1.48242 z"
         id="path490" /><path
         style="color:#000000;fill:#000000;-inkscape-stroke:none"
         d="m 102.10547,144.35547 -0.25586,0.0684 1.23242,4.59765 0.25391,-0.0684 z"
         id="path492" /><path
         style="color:#000000;fill:#000000;-inkscape-stroke:none"
         d="m 99.412109,144.2832 v 0.26367 h 1.863281 v -0.26367 z"
         id="path494" /><path
         style="color:#000000;fill:#000000;stroke-linecap:round;stroke-linejoin:round;-inkscape-stroke:none"
         d="m 111.50977,140.63867 c -1.43584,0 -2.60157,1.16573 -2.60157,2.60156 0,1.43584 1.16573,2.60352 2.60157,2.60352 1.43583,0 2.60351,-1.16768 2.60351,-2.60352 0,-1.43583 -1.16768,-2.60156 -2.60351,-2.60156 z m 0,0.27149 c 1.28883,0 2.33203,1.04124 2.33203,2.33007 0,1.28884 -1.0432,2.33204 -2.33203,2.33204 -1.28884,0 -2.33008,-1.0432 -2.33008,-2.33204 0,-1.28883 1.04124,-2.33007 2.33008,-2.33007 z"
         id="path1326" /><path
         style="color:#000000;fill:#000000;-inkscape-stroke:none"
         d="m 112.64844,142.26367 c -0.0868,1.0406 -0.69229,1.97551 -1.77735,2.17969 l 0.0508,0.26562 c 1.21617,-0.22885 1.90348,-1.29034 1.99804,-2.42382 z"
         id="path1104" /><path
         style="color:#000000;fill:#000000;-inkscape-stroke:none"
         d="m 110.30078,142.13281 -0.23828,0.13281 0.62109,1.11524 0.23829,-0.13086 z"
         id="path1158" /><path
         style="color:#000000;fill:#000000;-inkscape-stroke:none"
         d="m 111.0625,141.875 -0.23828,0.13086 0.62109,1.11719 0.23633,-0.13282 z"
         id="path1160" /><path
         style="color:#000000;fill:#000000;-inkscape-stroke:none"
         d="m 115.69727,147.46289 -0.0879,0.25 4.16406,1.48242 0.0879,-0.25 z"
         id="path1168" /><path
         style="color:#000000;fill:#000000;-inkscape-stroke:none"
         d="m 121.87891,144.35547 -1.23243,4.59765 0.25586,0.0684 1.23243,-4.59765 z"
         id="path1170" /><path
         style="color:#000000;fill:#000000;-inkscape-stroke:none"
         d="m 122.70703,144.2832 v 0.26367 h 1.86524 v -0.26367 z"
         id="path1172" /></g></g></svg>
